<?xml version="1.0" standalone="no"?>
<!DOCTYPE svg PUBLIC "-//W3C//DTD SVG 20010904//EN"
 "http://www.w3.org/TR/2001/REC-SVG-20010904/DTD/svg10.dtd">
<svg version="1.0" xmlns="http://www.w3.org/2000/svg"
 width="1000.000000pt" height="1000.000000pt" viewBox="0 0 1000.000000 1000.000000"
 preserveAspectRatio="xMidYMid meet">

<g transform="translate(0.000000,1000.000000) scale(0.100000,-0.100000)"
fill="#000000" stroke="none">
<path d="M2300 5480 l0 -2660 540 0 540 0 0 965 0 965 226 -2 226 -3 479 -951
479 -952 0 -401 0 -401 1460 0 1460 0 0 540 0 540 -691 0 c-403 0 -689 4 -687
9 2 5 315 388 696 851 l692 842 0 464 0 464 -1039 0 -1039 0 34 86 c123 304
149 684 70 1014 -145 607 -681 1132 -1277 1251 -185 36 -257 39 -1221 39
l-948 0 0 -2660z m1984 1547 c101 -36 154 -67 228 -136 97 -90 162 -200 187
-319 27 -130 4 -304 -56 -414 -59 -108 -181 -222 -290 -271 -116 -52 -163 -57
-585 -57 l-388 0 0 616 0 616 413 -4 412 -4 79 -27z m1896 -2372 c0 -4 -152
-190 -337 -415 l-337 -410 -59 113 c-77 146 -357 705 -357 712 0 3 245 5 545
5 300 0 545 -2 545 -5z m425 -1975 c11 -21 23 -30 40 -30 20 0 25 -5 25 -25 0
-25 -1 -25 -90 -25 -89 0 -90 0 -90 25 0 22 4 25 35 25 32 0 35 2 29 24 -4 18
-1 25 13 29 10 3 19 5 20 6 1 0 9 -12 18 -29z m593 -2 c3 -27 6 -28 58 -28 35
0 54 -4 54 -12 0 -6 12 0 28 14 24 24 29 25 46 12 19 -14 19 -15 -19 -54 l-39
-40 52 0 c49 0 52 -2 52 -25 0 -25 -1 -25 -89 -25 -74 0 -93 -3 -112 -20 l-24
-19 78 -1 77 0 0 -110 0 -110 -25 0 c-14 0 -25 5 -25 10 0 6 -40 10 -100 10
-60 0 -100 -4 -100 -10 0 -5 -11 -10 -25 -10 -24 0 -25 2 -25 75 0 78 -4 84
-42 64 -18 -9 -24 -8 -35 7 -19 26 -17 30 25 42 20 7 64 25 97 41 l60 29 -92
1 c-92 1 -93 1 -93 26 0 25 1 25 85 25 78 0 85 2 85 20 0 18 -7 20 -65 20 -58
0 -65 2 -65 20 0 18 7 20 65 20 l65 0 0 31 c0 26 3 30 23 27 16 -2 23 -11 25
-30z m-2095 -11 c37 -31 38 -33 20 -49 -17 -16 -21 -15 -58 16 -34 29 -38 36
-26 50 18 21 20 21 64 -17z m327 -47 l0 -70 -135 0 -135 0 0 70 0 70 135 0
135 0 0 -70z m781 53 c0 -11 3 -13 6 -5 3 8 35 12 109 12 l104 0 0 -193 c0
-137 -3 -196 -12 -205 -7 -7 -29 -12 -50 -12 -29 0 -38 4 -38 17 0 15 -1 15
-18 0 -10 -10 -35 -17 -55 -17 -30 0 -37 4 -37 19 0 14 8 21 28 23 25 3 27 7
30 53 l3 50 -25 -24 c-13 -13 -29 -20 -35 -16 -7 4 -11 -14 -11 -54 0 -54 -2
-61 -20 -61 -11 0 -20 5 -20 10 0 6 -25 10 -55 10 -30 0 -55 -4 -55 -10 0 -5
-9 -10 -20 -10 -19 0 -20 7 -20 100 0 55 -4 100 -9 100 -5 0 -11 6 -14 14 -4
10 9 24 36 40 l42 25 -37 1 c-31 0 -38 4 -38 20 0 15 7 20 27 20 26 0 26 0 8
20 -10 11 -20 33 -21 50 -4 28 -2 29 44 33 125 10 152 8 153 -10z m-261 -13
c0 -19 -7 -20 -220 -20 -213 0 -220 1 -220 20 0 19 7 20 220 20 213 0 220 -1
220 -20z m960 -90 l0 -110 -25 0 c-14 0 -25 5 -25 10 0 6 -12 10 -26 10 -22 0
-24 -3 -18 -22 17 -56 34 -86 75 -126 40 -39 42 -43 27 -59 -16 -15 -19 -14
-52 10 -37 29 -96 135 -96 174 0 13 -6 23 -14 23 -9 0 -17 -17 -21 -52 -8 -59
-29 -122 -50 -154 -10 -16 -21 -20 -44 -16 -18 2 -31 10 -31 18 0 9 -11 14
-30 14 -20 0 -30 -5 -30 -15 0 -8 -9 -15 -20 -15 -19 0 -20 7 -20 90 l0 90 70
0 70 0 0 -62 1 -63 17 30 c13 23 17 61 20 170 2 77 5 146 7 153 3 8 34 12 110
12 l105 0 0 -110z m-1060 -85 l0 -125 -115 0 -115 0 0 125 0 125 115 0 115 0
0 -125z m-270 -20 l0 -135 150 0 149 0 3 133 c3 128 4 132 26 135 l22 3 0
-170 0 -171 -25 0 c-14 0 -25 5 -25 10 0 6 -65 10 -175 10 l-175 0 0 160 0
160 25 0 25 0 0 -135z m-461 58 c2 -1 -4 -12 -14 -23 -17 -19 -18 -19 -56 13
-35 30 -36 33 -22 49 16 18 23 16 92 -39z m1539 35 c-3 -21 -9 -23 -75 -26
-72 -3 -73 -3 -73 23 0 25 1 25 76 25 72 0 75 -1 72 -22z m-1208 -73 l0 -55
-160 0 -160 0 0 48 c0 27 3 52 7 55 3 4 75 7 160 7 l153 0 0 -55z m1208 3 c-3
-21 -9 -23 -75 -26 -72 -3 -73 -3 -73 23 0 25 1 25 76 25 72 0 75 -1 72 -22z
m-1538 -58 c0 -5 -11 -45 -25 -89 -26 -80 -30 -84 -67 -64 -3 2 5 38 19 81 13
42 26 83 29 90 3 10 9 10 24 2 11 -6 20 -15 20 -20z m307 -27 c4 -11 -5 -26
-31 -48 l-38 -32 32 -7 c18 -3 43 -6 56 -6 27 0 30 -8 12 -33 -12 -15 -19 -15
-81 -2 -37 8 -71 16 -75 19 -5 3 -37 -4 -71 -14 -79 -25 -108 -25 -120 -1 -9
17 -6 20 27 25 20 4 50 9 65 12 l29 6 -28 29 c-15 16 -34 29 -41 29 -7 0 -13
9 -13 20 0 19 7 20 135 20 117 0 136 -2 142 -17z"/>
<path d="M7200 2590 c0 -27 40 -27 71 0 l24 19 -47 1 c-41 0 -48 -3 -48 -20z"/>
<path d="M7110 2425 c0 -12 18 -15 100 -15 82 0 100 3 100 15 0 12 -18 15
-100 15 -82 0 -100 -3 -100 -15z"/>
<path d="M7110 2345 c0 -12 18 -15 100 -15 82 0 100 3 100 15 0 12 -18 15
-100 15 -82 0 -100 -3 -100 -15z"/>
<path d="M5253 2643 c26 -2 67 -2 90 0 23 2 2 3 -48 3 -49 0 -68 -1 -42 -3z"/>
<path d="M5253 2593 c26 -2 67 -2 90 0 23 2 2 3 -48 3 -49 0 -68 -1 -42 -3z"/>
<path d="M6143 2635 c-9 -25 2 -27 22 -5 17 18 17 20 1 20 -9 0 -19 -7 -23
-15z"/>
<path d="M6208 2638 c9 -9 7 -17 -11 -36 -21 -24 -21 -25 -2 -20 11 3 27 9 36
13 13 5 20 -3 32 -37 l15 -43 1 58 c1 57 1 57 -29 57 -16 0 -30 5 -30 10 0 6
-5 10 -12 10 -9 0 -9 -3 0 -12z"/>
<path d="M6070 2620 c6 -11 13 -20 15 -20 3 0 5 9 5 20 0 11 -7 20 -15 20 -13
0 -14 -4 -5 -20z"/>
<path d="M6320 2618 c0 -11 7 -18 20 -18 14 0 22 -11 29 -37 14 -48 14 -63 1
-63 -5 0 -13 -1 -17 -1 -5 -1 -13 16 -20 37 -11 38 -11 38 -12 -33 -1 -40 3
-73 7 -73 5 0 20 13 35 28 24 25 27 36 27 99 l0 71 -35 4 c-29 3 -35 1 -35
-14z"/>
<path d="M6193 2519 c37 -20 45 -33 27 -44 -5 -3 -10 -18 -10 -32 l0 -26 33
25 c40 32 48 59 15 56 -17 -2 -24 3 -26 20 -3 18 -9 22 -40 22 l-37 -1 38 -20z"/>
<path d="M6064 2485 c-19 -14 -18 -14 4 -15 13 0 22 6 22 15 0 19 -1 19 -26 0z"/>
<path d="M6140 2485 c0 -10 9 -15 27 -15 29 0 29 2 -4 19 -19 10 -23 9 -23 -4z"/>
<path d="M6060 2410 c0 -11 7 -20 15 -20 8 0 15 9 15 20 0 11 -7 20 -15 20 -8
0 -15 -9 -15 -20z"/>
<path d="M6140 2410 c0 -11 7 -20 15 -20 8 0 15 9 15 20 0 11 -7 20 -15 20 -8
0 -15 -9 -15 -20z"/>
<path d="M6361 2396 c-18 -19 -27 -23 -33 -14 -4 8 -8 -4 -8 -29 0 -41 1 -43
30 -43 36 0 42 12 38 70 l-3 42 -24 -26z"/>
<path d="M6060 2340 c0 -11 7 -20 15 -20 8 0 15 9 15 20 0 11 -7 20 -15 20 -8
0 -15 -9 -15 -20z"/>
<path d="M6140 2340 c0 -11 7 -20 15 -20 8 0 15 9 15 20 0 11 -7 20 -15 20 -8
0 -15 -9 -15 -20z"/>
<path d="M6740 2580 l0 -50 60 0 60 0 0 50 0 50 -60 0 -60 0 0 -50z"/>
<path d="M6550 2370 c0 -27 3 -30 30 -30 27 0 30 3 30 30 0 27 -3 30 -30 30
-27 0 -30 -3 -30 -30z"/>
<path d="M5660 2535 c0 -20 5 -25 25 -25 20 0 25 5 25 25 0 20 -5 25 -25 25
-20 0 -25 -5 -25 -25z"/>
<path d="M5750 2535 c0 -20 5 -25 25 -25 20 0 25 5 25 25 0 20 -5 25 -25 25
-20 0 -25 -5 -25 -25z"/>
<path d="M5660 2435 c0 -20 5 -25 25 -25 20 0 25 5 25 25 0 20 -5 25 -25 25
-20 0 -25 -5 -25 -25z"/>
<path d="M5750 2435 c0 -20 5 -25 25 -25 20 0 25 5 25 25 0 20 -5 25 -25 25
-20 0 -25 -5 -25 -25z"/>
<path d="M5180 2486 c0 -11 9 -16 26 -16 31 0 28 23 -4 28 -15 2 -22 -2 -22
-12z"/>
<path d="M5270 2485 c0 -9 9 -15 25 -15 16 0 25 6 25 15 0 9 -9 15 -25 15 -16
0 -25 -6 -25 -15z"/>
<path d="M5360 2485 c0 -9 9 -15 25 -15 16 0 25 6 25 15 0 9 -9 15 -25 15 -16
0 -25 -6 -25 -15z"/>
<path d="M5264 2365 c25 -19 46 -19 70 0 18 14 15 15 -35 15 -50 -1 -52 -2
-35 -15z"/>
<path d="M6875 7061 c-118 -41 -159 -65 -224 -130 -101 -101 -151 -230 -151
-389 0 -302 239 -542 540 -542 472 0 713 570 390 923 -138 151 -362 206 -555
138z m298 -274 c53 -31 104 -87 124 -136 23 -53 21 -157 -4 -212 -23 -52 -78
-110 -126 -135 -49 -26 -167 -31 -224 -9 -96 37 -161 123 -170 227 -11 117 43
214 149 268 57 29 69 31 134 27 54 -3 83 -10 117 -30z"/>
</g>
</svg>
